<svg xmlns="http://www.w3.org/2000/svg" viewBox="0 0 220 256" role="img" aria-label="Svelte">
  <path fill="#FF3E00" d="M196 42C171 6 121-4 85 18L41 46C16 62 2 90 5 119c2 14 8 28 17 39-6 13-8 28-5 43 7 42 48 68 88 58 8-2 16-6 23-10l43-27c25-16 39-44 36-73-2-15-8-29-18-40 7-21 10-45 7-67Z"/>
  <path fill="#fff" d="M78 201c-17 4-34-7-37-25-2-10 0-20 6-28l4-6-5-5c-9-8-15-18-16-30-2-18 7-36 22-46l44-27c24-15 56-8 72 16 7 11 10 24 7 37l-1 7-18-6 1-5c1-6 0-12-4-17-8-13-25-16-37-9L72 80c-8 5-12 13-11 22 1 6 4 12 9 16l9 8 71-42c17-10 39-5 50 12 5 9 8 19 6 29-2 12-9 23-20 29l-44 27c-17 10-39 5-50-12-5-8-7-17-6-26l1-5 18 6-1 4c0 4 1 8 3 12 6 9 18 12 27 6l44-27c5-3 8-8 9-14 1-5 0-10-3-14-5-8-16-11-24-6l-72 43c-9 5-13 15-11 25 1 6 5 11 10 15 5 3 11 4 17 3l5-1 5 18Z"/>
</svg>
